<svg xmlns="http://www.w3.org/2000/svg" viewBox="0 0 188 76" fill="white">
  <g clip-path="url(#clip0_4010_895)">
    <path d="M165.827 51.5663C165.827 49.6002 167.31 48.3311 169.096 48.3311C170.704 48.3311 172.402 49.4751 172.402 51.5663C172.402 53.6576 170.847 54.873 169.096 54.873C167.345 54.873 165.827 53.5325 165.827 51.5663ZM163.397 51.6021C163.397 54.9981 165.934 57.1609 168.828 57.1609C170.151 57.1609 171.723 56.571 172.42 55.4092V56.9285H174.76V46.2935H172.42V47.7949C171.687 46.5795 170.097 46.0611 168.828 46.0611C165.934 46.0611 163.397 48.206 163.397 51.6021ZM122.105 46.2935H119.765V56.9285H122.105V46.2935ZM119.354 41.9859C119.354 42.826 120.086 43.4694 120.926 43.4694C121.766 43.4694 122.481 42.826 122.481 41.9859C122.481 41.1458 121.802 40.5023 120.926 40.5023C120.051 40.5023 119.354 41.1458 119.354 41.9859ZM110.617 41.2352H108.187V56.9285H116.924V54.7121H110.599V41.2173L110.617 41.2352ZM111.474 24.2192H108.133V35.4798H111.474V24.2192ZM94.536 41.2352H92.0703V51.4948C92.0703 54.9445 94.7683 57.1609 97.9308 57.1609C101.093 57.1609 103.773 54.9266 103.773 51.4948V41.2352H101.326V51.4948C101.326 53.5325 99.7533 54.8373 97.9308 54.8373C96.1083 54.8373 94.536 53.5146 94.536 51.4948V41.2352ZM26.4794 38.0357C26.4794 31.19 31.2857 25.7206 37.8787 25.7206C41.9346 25.7206 45.383 27.7761 47.4914 30.8504L54.2988 26.1853C50.8683 21.1806 44.9006 17.8739 37.8609 17.8739C26.5866 17.8739 18.046 26.8824 18.046 38.0357C18.046 49.1891 26.5866 58.1439 37.8609 58.1439C45.0257 58.1439 51.0291 54.73 54.4596 49.5466L47.7058 44.8815C45.5795 48.063 41.9882 50.2973 37.8609 50.2973C31.2857 50.2973 26.4615 44.8278 26.4615 38.0536M8.02243 7.98965H68.3604V68.0282H8.02243V7.98965ZM0 76H76.3828V0H0V76ZM93.6248 27.2041C93.6248 24.3086 95.6617 21.9849 98.449 21.9849C100.164 21.9849 101.629 22.8608 102.523 24.1656L105.399 22.1816C103.952 20.0546 101.415 18.6604 98.449 18.6604C93.6784 18.6604 90.0692 22.4675 90.0692 27.2041C90.0692 31.9407 93.6784 35.7121 98.449 35.7121C101.486 35.7121 104.024 34.2643 105.489 32.0659L102.63 30.0818C101.737 31.4403 100.2 32.3697 98.4668 32.3697C95.6795 32.3697 93.6427 30.0461 93.6427 27.1863M111.867 20.0367C111.867 18.9285 110.938 18.0884 109.813 18.0884C108.687 18.0884 107.704 18.9285 107.704 20.0367C107.704 21.1449 108.669 22.0207 109.813 22.0207C110.956 22.0207 111.867 21.1449 111.867 20.0367ZM122.213 22.3782H124.642L121.98 18.3208H118.639L115.995 22.3782H118.425L120.319 20.2333L122.23 22.3782H122.213ZM122.784 28.8485H117.889C118.174 27.4186 119.461 26.9182 120.408 26.9182C121.355 26.9182 122.623 27.4722 122.784 28.8485ZM126.125 30.9398C126.143 30.6538 126.179 30.1891 126.179 29.9031C126.179 26.3641 123.606 23.969 120.39 23.969C117.174 23.969 114.476 26.2568 114.476 29.8137C114.476 33.3707 117.138 35.73 120.39 35.73C122.302 35.73 124.41 35.1223 125.554 33.4421L123.106 31.7799C122.552 32.5127 121.551 32.8523 120.64 32.8523C119.443 32.8523 118.014 32.2803 117.853 30.9755H126.143L126.125 30.9398ZM129.109 46.0611C127.144 46.0611 125.429 47.2944 125.286 48.8674C125.143 50.5833 125.965 51.7093 128.234 52.3349L129.681 52.6745C130.449 52.8532 131.164 53.2465 131.164 53.9257C131.164 54.73 130.342 55.1947 129.27 55.1947C128.037 55.1947 127.269 54.587 127.162 53.6754H124.982C125.036 55.9097 127.09 57.1609 129.074 57.1609C131.521 57.1609 133.326 55.9991 133.326 53.9436C133.326 52.8711 132.844 51.4055 130.539 50.8335L128.895 50.4224C128.323 50.2615 127.734 50.0113 127.591 49.6002C127.483 49.2785 127.501 48.9389 127.68 48.635C127.912 48.2775 128.591 48.0452 129.199 48.0452C129.931 48.0452 130.664 48.3848 130.753 49.1891H133.004C132.861 46.9191 131.021 46.0433 129.109 46.0433M136.453 35.4798H139.812V28.7413C139.812 25.5419 138.204 23.969 135.667 23.969C134.327 23.969 133.004 24.7197 132.397 25.8457V24.2013H129.038V35.4619H132.397V29.492C132.397 27.7761 133.29 27.2041 134.487 27.2041C135.684 27.2041 136.453 27.9548 136.453 29.4563V35.4619V35.4798ZM144.797 51.5663C144.797 53.5325 143.35 54.873 141.563 54.873C139.776 54.873 138.293 53.6397 138.293 51.5663C138.293 49.4929 139.973 48.3311 141.563 48.3311C143.35 48.3311 144.797 49.6002 144.797 51.5663ZM141.867 46.0611C140.348 46.0611 138.936 46.651 138.275 47.8128V40.5023H135.917V56.9285H138.275V55.3735C138.936 56.5174 140.401 57.143 141.849 57.143C144.743 57.143 147.209 54.9624 147.209 51.6021C147.209 48.2418 144.779 46.0433 141.867 46.0433M146.03 29.8137C146.03 28.2051 147.405 27.1863 148.835 27.1863C149.71 27.1863 150.55 27.5974 151.015 28.3302L153.748 26.3819C152.658 24.8627 150.836 23.9868 148.817 23.9868C145.565 23.9868 142.653 26.2747 142.653 29.8316C142.653 33.3885 145.565 35.7479 148.817 35.7479C150.854 35.7479 152.676 34.8542 153.748 33.3349L151.015 31.4045C150.55 32.1195 149.71 32.5484 148.835 32.5484C147.405 32.5484 146.03 31.4581 146.03 29.8495M160.377 20.0367C160.377 18.9285 159.448 18.0884 158.322 18.0884C157.197 18.0884 156.214 18.9285 156.214 20.0367C156.214 21.1449 157.179 22.0207 158.322 22.0207C159.466 22.0207 160.377 21.1449 160.377 20.0367ZM160.002 24.2192H156.661V35.4798H160.002V24.2192ZM158.537 51.5663C158.537 53.5682 157.072 54.873 155.285 54.873C153.498 54.873 152.051 53.5682 152.051 51.5663C152.051 49.5644 153.516 48.349 155.285 48.349C157.054 48.349 158.537 49.6002 158.537 51.5663ZM160.895 51.5663C160.895 48.1881 158.34 46.0611 155.285 46.0611C152.23 46.0611 149.728 48.206 149.728 51.5663C149.728 54.9266 152.265 57.143 155.285 57.143C158.305 57.143 160.895 54.9445 160.895 51.5663ZM172.044 29.8316C172.044 31.5296 170.687 32.5127 169.311 32.5127C167.935 32.5127 166.47 31.4581 166.47 29.8316C166.47 28.2051 167.899 27.1505 169.311 27.1505C170.722 27.1505 172.044 28.1336 172.044 29.8316ZM172.044 35.4798H175.386V24.2192H172.044V25.4704C171.169 24.2192 169.472 23.969 168.739 23.969C165.845 23.969 162.968 26.2032 162.968 29.8316C162.968 33.46 165.845 35.6943 168.739 35.6943C169.615 35.6943 171.312 35.2832 172.044 34.1928V35.4619V35.4798ZM182.014 27.5616C181.997 27.0611 182.479 26.7215 183.194 26.7215C183.73 26.7215 184.462 26.8645 184.48 27.7046H187.661C187.643 24.952 185.266 23.969 183.015 23.969C180.639 23.969 178.62 25.5061 178.602 27.1684C178.584 28.2051 178.602 29.921 181.997 30.8326L183.48 31.2258C184.301 31.4403 184.587 31.7084 184.587 32.191C184.587 32.7629 183.962 33.1025 183.212 33.1383C182.282 33.1383 181.568 32.4948 181.532 31.8335H178.37C178.387 34.3358 180.799 35.7121 183.104 35.7121C185.409 35.7121 188 34.5861 188 32.191C188 31.476 187.661 29.6529 184.927 28.9022L183.015 28.4017C182.336 28.223 182.05 27.9012 182.014 27.5616Z"></path>
    <path d="M13.8115 22.0745H15.6697V18.6248H18.4927V17.0341H15.6697V15.0679H19.2253V13.4414H13.8115V22.0745Z"></path>
  </g>
  <defs>
    <clipPath id="clip0_4010_895">
      <rect width="188" height="76"></rect>
    </clipPath>
  </defs>
</svg>